<svg id="Capa_1" enable-background="new 0 0 32 32" height="48" viewBox="0 0 512 512" width="48" xmlns="http://www.w3.org/2000/svg">
    <g>
        <g>
            <path d="m264.016 229.262 144.29-24.048 42.884 70.217c12.998 20.797 12.997 47.187-.003 67.982l-42.889 68.605c-9.968 15.946-27.447 25.632-46.252 25.632-21.238 0-40.544-12.327-49.481-31.592l-56.565-120.683z"
                  fill="#ffd064"/>
            <path d="m257.472 275.069 165.263 113.855-14.437 23.094c-9.968 15.946-27.447 25.632-46.252 25.632-21.238 0-40.544-12.327-49.481-31.592l-56.565-120.683z"
                  fill="#ffe07d"/>
            <path d="m452.041 277.035c12.041 20.543 11.821 46.101-.855 66.378l-10.717 17.143-58.855-82.645z" fill="#ffe07d"/>
            <path d="m261.542 246.582 16.502-19.325 137.156-10.757 35.99 58.93c7.677 12.283 10.698 26.508 9.306 40.388l-201.07-54.423z"
                  fill="#ffa95f"/>
            <path d="m420.783 225.642-68.991 60.754-92.366-25.001 2.116-14.813 16.502-19.324 107.119-8.402 32.874 2.291z" fill="#ff8b5a"/>
            <path d="m447.471 77.301c27.365-10.82 57.029 9.112 57.029 38.538 0 6.068-1.33 12.062-3.896 17.561l-32.787 70.258c-11.853 25.4-37.347 41.636-65.377 41.636h-138.424v-24.048c60.253-78.793 136.562-125.405 183.455-143.945z"
                  fill="#ffd064"/>
            <path d="m504.197 111.029-240.181 129.309v-19.093c60.253-78.793 136.562-125.404 183.455-143.944 25.841-10.217 53.701 7 56.726 33.728z"
                  fill="#ffa95f"/>
            <path d="m407.025 96.807c14.868-8.333 28.6-14.822 40.446-19.506 25.842-10.217 53.701 7 56.726 33.728l-159.287 85.757z"
                  fill="#ff8b5a"/>
            <path d="m322.265 245.294 156.221-64.496-10.668 22.86c-11.853 25.4-37.347 41.636-65.377 41.636z" fill="#ffe07d"/>
            <path d="m247.984 229.262-144.29-24.048-42.884 70.216c-12.998 20.797-12.997 47.187.003 67.982l42.889 68.605c9.968 15.946 27.447 25.632 46.252 25.632 21.238 0 40.544-12.327 49.481-31.592l56.565-120.682z"
                  fill="#ffd064"/>
            <path d="m254.528 275.069-165.263 113.855 14.437 23.094c9.968 15.946 27.447 25.632 46.252 25.632 21.238 0 40.544-12.327 49.481-31.592l56.565-120.683z"
                  fill="#ffe07d"/>
            <path d="m59.959 277.035c-12.041 20.543-11.821 46.101.855 66.378l10.717 17.143 58.855-82.645z" fill="#ffe07d"/>
            <path d="m250.458 246.582-16.502-19.325-137.156-10.757-35.99 58.93c-7.677 12.283-10.698 26.508-9.306 40.388l201.07-54.423z"
                  fill="#ffa95f"/>
            <path d="m91.217 225.642 68.991 60.754 92.366-25.001-2.116-14.813-16.502-19.324-107.119-8.402-32.874 2.291z" fill="#ff8b5a"/>
            <path d="m64.529 77.301c-27.364-10.82-57.029 9.112-57.029 38.538 0 6.068 1.33 12.062 3.896 17.561l32.787 70.258c11.853 25.4 37.347 41.636 65.377 41.636h138.425v-24.048c-60.254-78.793-136.563-125.405-183.456-143.945z"
                  fill="#ffd064"/>
            <path d="m7.803 111.029 240.181 129.309v-19.093c-60.253-78.792-136.562-125.404-183.455-143.944-25.841-10.217-53.701 7-56.726 33.728z"
                  fill="#ffa95f"/>
            <path d="m256 205.213c-8.854 0-16.032 7.178-16.032 16.032v64.129c0 8.854 7.178 16.032 16.032 16.032 8.854 0 16.032-7.178 16.032-16.032v-64.129c0-8.854-7.178-16.032-16.032-16.032z"
                  fill="#5d5360"/>
            <path d="m104.975 96.807c-14.868-8.333-28.6-14.822-40.446-19.506-25.842-10.217-53.701 7-56.726 33.728l159.287 85.758z"
                  fill="#ff8b5a"/>
            <path d="m189.735 245.294-156.221-64.497 10.668 22.86c11.853 25.4 37.347 41.636 65.377 41.636h80.176z" fill="#ffe07d"/>
        </g>
        <path d="m507.4 136.572c3.009-6.449 4.6-13.618 4.6-20.733 0-16.23-8.001-31.361-21.404-40.474-13.498-9.177-30.65-11.06-45.883-5.038-46.459 18.369-113.871 56.206-174.09 132.501-1.734-1.379-3.664-2.519-5.743-3.37 8.565-37.411 25.514-64.174 38.623-80.357 15.137-18.686 28.596-27.751 28.782-27.875 3.449-2.282 4.399-6.928 2.122-10.382-2.279-3.458-6.931-4.412-10.39-2.133-2.115 1.395-46.319 31.218-68.017 96.77-21.697-65.552-65.901-95.376-68.017-96.77-3.458-2.281-8.11-1.326-10.39 2.133-2.28 3.458-1.325 8.11 2.133 10.39.518.342 50.437 34.009 67.398 108.224-2.081.851-4.012 1.992-5.747 3.372-60.219-76.297-127.631-114.135-174.09-132.503-15.232-6.023-32.385-4.14-45.883 5.038-13.403 9.113-21.404 24.243-21.404 40.474 0 7.115 1.59 14.284 4.6 20.733l32.787 70.257c7.397 15.851 19.728 28.512 34.641 36.502l-17.578 28.124c-14.416 23.065-14.414 52.871.004 75.934l42.889 68.604c11.413 18.257 31.081 29.156 52.611 29.156 24.065 0 46.158-14.105 56.285-35.936l42.261-91.097v63.451c0 4.142 3.358 7.5 7.5 7.5s7.5-3.358 7.5-7.5v-63.451l42.261 91.097c10.127 21.83 32.22 35.936 56.285 35.936 21.531 0 41.199-10.899 52.611-29.156l42.889-68.604c14.418-23.063 14.42-52.869.004-75.934l-17.578-28.124c14.913-7.99 27.244-20.651 34.641-36.502zm-57.171-52.296c10.768-4.256 22.407-2.984 31.933 3.493 6.597 4.486 11.217 10.845 13.403 18.171l-32.605 17.909c-3.63 1.994-4.957 6.554-2.963 10.185 1.365 2.485 3.932 3.891 6.581 3.891 1.221 0 2.458-.299 3.604-.928l26.113-14.343c-.535 2.613-1.363 5.168-2.487 7.575l-21.375 45.804-153.754 61.762h-32.008l155.267-85.285c3.63-1.994 4.957-6.554 2.963-10.185-1.994-3.63-6.553-4.957-10.185-2.963l-68.615 37.689 44.87-74.444c14.167-7.652 27.421-13.651 39.258-18.331zm-5.402 255.162-4.71 7.534-25.881-36.077 37.952 10.141c-1.333 6.438-3.786 12.682-7.361 18.402zm-53.43-34.647 40.124 55.931-10.988 17.577-141-97.14v-6.26zm-229.203-26.639-28.796-25.358h99.069v6.58zm85.274 7.223v-64.129c0-4.698 3.817-8.521 8.513-8.531h.011.008s.006 0 .008 0h.011c4.696.011 8.513 3.833 8.513 8.531v64.129c0 4.705-3.828 8.532-8.532 8.532s-8.532-3.828-8.532-8.532zm32.064-26.001v-6.58h99.069l-28.796 25.358zm104.143-140.536-43.755 72.594-60.388 33.17v-3.356c0-1.65-.172-3.259-.497-4.814 34.185-44.368 70.917-75.636 104.64-97.594zm-150.71 97.593c-.325 1.555-.497 3.165-.497 4.814v3.356l-60.699-33.34-43.785-72.644c33.816 21.969 70.68 53.297 104.981 97.814zm-203.127-128.662c9.526-6.478 21.166-7.751 31.934-3.493 11.75 4.646 24.898 10.592 38.948 18.164l44.868 74.44-129.152-70.94c2.185-7.326 6.805-13.685 13.402-18.171zm-14.132 34.884 209.623 115.141h-32.008l-153.754-61.762-21.375-45.803c-1.123-2.408-1.951-4.962-2.486-7.576zm35.273 77.833-2.128-4.56 104.229 41.868h-43.52c-25.01 0-48.005-14.644-58.581-37.308zm35.072 48.717c7.512 2.337 15.423 3.591 23.509 3.591h1.141l34.08 30.011-86.039 22.991c.583-9.224 3.389-18.328 8.428-26.39zm-18.878 90.235c-3.575-5.719-6.028-11.963-7.361-18.402l37.952-10.141-25.881 36.077zm125.459 63.463c-7.678 16.553-24.43 27.248-42.678 27.248-16.326 0-31.239-8.265-39.893-22.107l-10.635-17.011 16.537-11.393c3.411-2.35 4.271-7.021 1.921-10.431-2.35-3.411-7.02-4.271-10.431-1.921l-15.986 11.014-10.988-17.577 40.124-55.931 111.865-29.892v6.26l-97.006 66.83c-3.411 2.35-4.271 7.02-1.921 10.431 1.455 2.112 3.799 3.246 6.183 3.246 1.467 0 2.949-.429 4.248-1.324l91.684-63.164c1.04 1.786 2.304 3.426 3.761 4.874zm209.306 5.141c-8.654 13.843-23.567 22.107-39.893 22.107-18.248 0-35-10.695-42.678-27.248l-46.785-100.849c1.457-1.448 2.721-3.088 3.761-4.874l136.229 93.852zm42.893-128.637c5.039 8.062 7.845 17.166 8.428 26.39l-86.039-22.991 34.08-30.011h1.141c8.09 0 16.005-1.255 23.521-3.595zm-42.391-41.611h-43.52l104.228-41.868-2.128 4.56c-10.575 22.664-33.57 37.308-58.58 37.308z"/>
    </g>
</svg>